<?xml version="1.0" encoding="utf-8"?>
<!-- Generator: Adobe Illustrator 18.0.0, SVG Export Plug-In . SVG Version: 6.00 Build 0)  -->
<!DOCTYPE svg PUBLIC "-//W3C//DTD SVG 1.1//EN" "http://www.w3.org/Graphics/SVG/1.1/DTD/svg11.dtd">
<svg version="1.1" id="Layer_1" xmlns="http://www.w3.org/2000/svg" xmlns:xlink="http://www.w3.org/1999/xlink" x="0px" y="0px"
	 viewBox="-87 0 786 792" enable-background="new -87 0 786 792" xml:space="preserve">
<g id="Layer_1_1_" display="none">
	<rect x="84.5" y="235.7" display="inline" width="443.1" height="75.9"/>
	<rect x="84.5" y="358.1" display="inline" width="306.6" height="75.9"/>
	<rect x="84.5" y="480.5" display="inline" width="176.3" height="75.9"/>
</g>
<path d="M-45.9,289.2v178.6v230.5h166.5V467.7V289.2V93.8H-45.9V289.2z M104.9,289.2v178.6h-135V289.2H104.9z"/>
<path d="M222.8,368.9v47.9v111.6v19.1v150.7h166.5V547.5v-19.1V416.8v-47.9v-89H222.8V368.9z M373.6,528.3h-135V416.7h135V528.3z"/>
<path d="M491.4,457.7v22.8v39.9v65.4V659v39h166.5v-39v-73.4v-65.4v-39.9v-22.8H491.4z M642.1,585.7h-135v-65.4h135V585.7z"/>
</svg>
